<svg width="131" height="123" viewBox="0 0 131 123" fill="none" xmlns="http://www.w3.org/2000/svg">
<ellipse cx="65.5" cy="61.5" rx="65.5" ry="61.5" fill="#0070A0" fill-opacity="0.11"/>
<ellipse cx="66" cy="61.5" rx="38" ry="38.5" fill="white"/>
<path d="M61.6641 51.9688C63.3984 51.9688 64.9219 52.4609 66.2344 53.4453C67.5469 54.4297 68.2031 56.1797 68.2031 58.6953V73.1562C68.2031 73.4688 68.0703 73.7031 67.8047 73.8594C67.5391 74 67.1172 74.0703 66.5391 74.0703H66.3984C65.8047 74.0703 65.375 74 65.1094 73.8594C64.8438 73.7031 64.7109 73.4688 64.7109 73.1562V59.0469C64.7109 57.7812 64.3672 56.7891 63.6797 56.0703C63.0078 55.3516 62.0156 54.9922 60.7031 54.9922C59.6094 54.9922 58.6172 55.3125 57.7266 55.9531C56.8516 56.5781 56.1406 57.2344 55.5938 57.9219C55.625 58.2969 55.6406 58.5781 55.6406 58.7656V73.1562C55.6406 73.7656 55.0781 74.0703 53.9531 74.0703H53.7891C52.6797 74.0703 52.125 73.7656 52.125 73.1562V59.0469C52.125 57.7812 51.7812 56.7891 51.0938 56.0703C50.4219 55.3516 49.4297 54.9922 48.1172 54.9922C47.2109 54.9922 46.3828 55.2109 45.6328 55.6484C44.8828 56.0703 44.2578 56.5312 43.7578 57.0312C43.2734 57.5312 43.0312 57.8125 43.0312 57.875V73.1562C43.0312 73.4688 42.8984 73.7031 42.6328 73.8594C42.3828 74 41.9688 74.0703 41.3906 74.0703H41.2031C40.625 74.0703 40.2031 74 39.9375 73.8594C39.6875 73.7031 39.5625 73.4688 39.5625 73.1562V58.5312C39.5625 56.7188 39.4766 55.4141 39.3047 54.6172C39.1328 53.8047 39.0469 53.3594 39.0469 53.2812C39.0469 52.9375 39.3047 52.6953 39.8203 52.5547C40.3516 52.3984 40.8438 52.3203 41.2969 52.3203C41.6875 52.3203 41.9766 52.5312 42.1641 52.9531C42.3516 53.375 42.4844 53.8047 42.5625 54.2422C42.6562 54.6797 42.7188 54.9609 42.75 55.0859C43.5156 54.1953 44.4531 53.4531 45.5625 52.8594C46.6719 52.2656 47.8438 51.9688 49.0781 51.9688C50.3438 51.9688 51.5234 52.2266 52.6172 52.7422C53.7109 53.2422 54.5156 54.1328 55.0312 55.4141C55.8906 54.3984 56.8984 53.5703 58.0547 52.9297C59.2109 52.2891 60.4141 51.9688 61.6641 51.9688ZM84.0594 74.2344C80.6063 74.2344 78.0359 73.3359 76.3484 71.5391C74.6766 69.7266 73.8406 66.9609 73.8406 63.2422C73.8406 59.5547 74.6609 56.7578 76.3016 54.8516C77.9422 52.9297 80.3563 51.9688 83.5438 51.9688C86.3875 51.9688 88.5281 52.8906 89.9656 54.7344C91.4188 56.5781 92.1453 59.2812 92.1453 62.8438C92.1453 63 92.0594 63.2188 91.8875 63.5C91.7313 63.7656 91.5359 64.0078 91.3016 64.2266C91.0828 64.4297 90.8953 64.5312 90.7391 64.5312H77.5906C77.7625 66.8594 78.3563 68.5625 79.3719 69.6406C80.4031 70.7031 81.95 71.2344 84.0125 71.2344C85.1688 71.2344 86.1609 71.0938 86.9891 70.8125C87.8328 70.5312 88.6453 70.1875 89.4266 69.7812C89.5047 69.75 89.6219 69.6953 89.7781 69.6172C89.9344 69.5391 90.0438 69.5 90.1063 69.5C90.2781 69.5 90.4734 69.6406 90.6922 69.9219C90.9266 70.1875 91.1219 70.4922 91.2781 70.8359C91.45 71.1641 91.5359 71.4062 91.5359 71.5625C91.5359 71.9062 91.1922 72.2891 90.5047 72.7109C89.8172 73.1328 88.8953 73.4922 87.7391 73.7891C86.5984 74.0859 85.3719 74.2344 84.0594 74.2344ZM88.4188 61.5312C88.4188 57.1562 86.7547 54.9688 83.4266 54.9688C79.8484 54.9688 77.9031 57.1562 77.5906 61.5312H88.4188Z" fill="black"/>
<ellipse cx="65.5" cy="61.5" rx="65.5" ry="61.5" fill="#0070A0" fill-opacity="0.11"/>
<ellipse cx="66" cy="61.5" rx="38" ry="38.5" fill="white"/>
<ellipse cx="35.5" cy="64" rx="4.5" ry="5" fill="#0070A0"/>
<ellipse cx="94.5" cy="64" rx="4.5" ry="5" fill="#0070A0"/>
<ellipse cx="65.5" cy="64" rx="4.5" ry="5" fill="#0070A0"/>
</svg>
