<svg width="200" height="108" viewBox="0 0 200 108" fill="none" xmlns="http://www.w3.org/2000/svg">
<path d="M7.625 73.0938C6.125 73.0938 5.375 72.6875 5.375 71.875V35.2188C5.375 34.3854 6.125 33.9688 7.625 33.9688H8.0625C9.54167 33.9688 10.2812 34.3854 10.2812 35.2188V71.875C10.2812 72.6875 9.54167 73.0938 8.0625 73.0938H7.625ZM22.9187 73.0938C22.1271 73.0938 21.5542 73 21.2 72.8125C20.8458 72.6042 20.6687 72.2917 20.6687 71.875V52.375C20.6687 49.9583 20.5542 48.2188 20.325 47.1562C20.0958 46.0729 19.9812 45.4792 19.9812 45.375C19.9812 44.9167 20.325 44.5938 21.0125 44.4062C21.7208 44.1979 22.3875 44.0938 23.0125 44.0938C23.5333 44.0938 23.9187 44.375 24.1687 44.9375C24.4187 45.5 24.5958 46.0729 24.7 46.6562C24.825 47.2396 24.9083 47.6146 24.95 47.7812C26.1167 46.4688 27.4604 45.4479 28.9812 44.7188C30.5229 43.9896 32.075 43.625 33.6375 43.625C36.4708 43.625 38.6792 44.4271 40.2625 46.0312C41.8667 47.6146 42.6687 49.8021 42.6687 52.5938V71.875C42.6687 72.2917 42.4917 72.6042 42.1375 72.8125C41.7833 73 41.2208 73.0938 40.45 73.0938H40.2C39.45 73.0938 38.8979 73 38.5437 72.8125C38.1896 72.6042 38.0125 72.2917 38.0125 71.875V53.0625C38.0125 51.3542 37.5125 50.0312 36.5125 49.0938C35.5333 48.1354 34.1479 47.6562 32.3562 47.6562C31.1062 47.6562 29.8458 48.0104 28.575 48.7188C27.325 49.4062 26.2417 50.3542 25.325 51.5625V71.875C25.325 72.2917 25.1479 72.6042 24.7937 72.8125C24.4396 73 23.8875 73.0938 23.1375 73.0938H22.9187ZM54.0563 73.0938C53.2646 73.0938 52.6917 73 52.3375 72.8125C51.9833 72.6042 51.8063 72.2917 51.8063 71.875V52.375C51.8063 49.9583 51.6917 48.2188 51.4625 47.1562C51.2333 46.0729 51.1188 45.4792 51.1188 45.375C51.1188 44.9167 51.4625 44.5938 52.15 44.4062C52.8583 44.1979 53.525 44.0938 54.15 44.0938C54.6708 44.0938 55.0563 44.375 55.3063 44.9375C55.5563 45.5 55.7333 46.0729 55.8375 46.6562C55.9625 47.2396 56.0458 47.6146 56.0875 47.7812C57.2542 46.4688 58.5979 45.4479 60.1188 44.7188C61.6604 43.9896 63.2125 43.625 64.775 43.625C67.6083 43.625 69.8167 44.4271 71.4 46.0312C73.0042 47.6146 73.8063 49.8021 73.8063 52.5938V71.875C73.8063 72.2917 73.6292 72.6042 73.275 72.8125C72.9208 73 72.3583 73.0938 71.5875 73.0938H71.3375C70.5875 73.0938 70.0354 73 69.6813 72.8125C69.3271 72.6042 69.15 72.2917 69.15 71.875V53.0625C69.15 51.3542 68.65 50.0312 67.65 49.0938C66.6708 48.1354 65.2854 47.6562 63.4938 47.6562C62.2438 47.6562 60.9833 48.0104 59.7125 48.7188C58.4625 49.4062 57.3792 50.3542 56.4625 51.5625V71.875C56.4625 72.2917 56.2854 72.6042 55.9313 72.8125C55.5771 73 55.025 73.0938 54.275 73.0938H54.0563ZM94.1 73.3125C89.9125 73.3125 86.7146 72.0625 84.5062 69.5625C82.3187 67.0417 81.225 63.3854 81.225 58.5938C81.225 53.8021 82.3396 50.1146 84.5687 47.5312C86.7979 44.9271 89.975 43.625 94.1 43.625C98.1833 43.625 101.308 44.9167 103.475 47.5C105.642 50.0625 106.725 53.7604 106.725 58.5938C106.725 63.4062 105.652 67.0625 103.506 69.5625C101.381 72.0625 98.2458 73.3125 94.1 73.3125ZM93.9437 69.3125C96.6521 69.3125 98.6521 68.4375 99.9437 66.6875C101.235 64.9167 101.881 62.1875 101.881 58.5C101.881 54.7917 101.235 52.0521 99.9437 50.2812C98.6521 48.5104 96.6521 47.625 93.9437 47.625C91.2562 47.625 89.2771 48.5104 88.0062 50.2812C86.7354 52.0312 86.1 54.7708 86.1 58.5C86.1 62.2083 86.725 64.9375 87.975 66.6875C89.2458 68.4375 91.2354 69.3125 93.9437 69.3125ZM123.113 73.3125C121.258 73.3125 119.602 72.75 118.144 71.625C116.685 70.5 115.956 68.5104 115.956 65.6562V47.9375H113.175C112.779 47.9375 112.488 47.8125 112.3 47.5625C112.133 47.2917 112.05 46.8646 112.05 46.2812V45.5938C112.05 45.0104 112.133 44.5938 112.3 44.3438C112.488 44.0729 112.779 43.9375 113.175 43.9375H115.956L116.613 38.125C116.654 37.3125 117.248 36.9062 118.394 36.9062H118.925C119.508 36.9062 119.935 37.0104 120.206 37.2188C120.477 37.4062 120.613 37.7083 120.613 38.125V43.9375H125.269C125.665 43.9375 125.946 44.0729 126.113 44.3438C126.3 44.5938 126.394 45.0104 126.394 45.5938V46.2812C126.394 46.8646 126.3 47.2917 126.113 47.5625C125.946 47.8125 125.665 47.9375 125.269 47.9375H120.613V65.2188C120.613 66.7396 120.873 67.8021 121.394 68.4062C121.935 69.0104 122.665 69.3125 123.581 69.3125C124.29 69.3125 124.831 69.2708 125.206 69.1875C125.602 69.1042 125.863 69.0625 125.988 69.0625C126.321 69.0625 126.592 69.3958 126.8 70.0625C127.029 70.7292 127.144 71.2604 127.144 71.6562C127.144 72.7604 125.8 73.3125 123.113 73.3125ZM142.375 73.3125C140.521 73.3125 138.865 72.75 137.406 71.625C135.948 70.5 135.219 68.5104 135.219 65.6562V47.9375H132.438C132.042 47.9375 131.75 47.8125 131.562 47.5625C131.396 47.2917 131.312 46.8646 131.312 46.2812V45.5938C131.312 45.0104 131.396 44.5938 131.562 44.3438C131.75 44.0729 132.042 43.9375 132.438 43.9375H135.219L135.875 38.125C135.917 37.3125 136.51 36.9062 137.656 36.9062H138.188C138.771 36.9062 139.198 37.0104 139.469 37.2188C139.74 37.4062 139.875 37.7083 139.875 38.125V43.9375H144.531C144.927 43.9375 145.208 44.0729 145.375 44.3438C145.562 44.5938 145.656 45.0104 145.656 45.5938V46.2812C145.656 46.8646 145.562 47.2917 145.375 47.5625C145.208 47.8125 144.927 47.9375 144.531 47.9375H139.875V65.2188C139.875 66.7396 140.135 67.8021 140.656 68.4062C141.198 69.0104 141.927 69.3125 142.844 69.3125C143.552 69.3125 144.094 69.2708 144.469 69.1875C144.865 69.1042 145.125 69.0625 145.25 69.0625C145.583 69.0625 145.854 69.3958 146.062 70.0625C146.292 70.7292 146.406 71.2604 146.406 71.6562C146.406 72.7604 145.062 73.3125 142.375 73.3125ZM165.2 73.3125C160.596 73.3125 157.169 72.1146 154.919 69.7188C152.69 67.3021 151.575 63.6146 151.575 58.6562C151.575 53.7396 152.669 50.0104 154.856 47.4688C157.044 44.9062 160.262 43.625 164.512 43.625C168.304 43.625 171.158 44.8542 173.075 47.3125C175.012 49.7708 175.981 53.375 175.981 58.125C175.981 58.3333 175.867 58.625 175.637 59C175.429 59.3542 175.169 59.6771 174.856 59.9688C174.565 60.2396 174.315 60.375 174.106 60.375H156.575C156.804 63.4792 157.596 65.75 158.95 67.1875C160.325 68.6042 162.387 69.3125 165.137 69.3125C166.679 69.3125 168.002 69.125 169.106 68.75C170.231 68.375 171.315 67.9167 172.356 67.375C172.46 67.3333 172.617 67.2604 172.825 67.1562C173.033 67.0521 173.179 67 173.262 67C173.492 67 173.752 67.1875 174.044 67.5625C174.356 67.9167 174.617 68.3229 174.825 68.7812C175.054 69.2188 175.169 69.5417 175.169 69.75C175.169 70.2083 174.71 70.7188 173.794 71.2812C172.877 71.8438 171.648 72.3229 170.106 72.7188C168.585 73.1146 166.95 73.3125 165.2 73.3125ZM171.012 56.375C171.012 50.5417 168.794 47.625 164.356 47.625C159.585 47.625 156.992 50.5417 156.575 56.375H171.012ZM185.962 73.0938C185.171 73.0938 184.598 73 184.244 72.8125C183.89 72.6042 183.712 72.2917 183.712 71.875V52.375C183.712 49.9583 183.598 48.2188 183.369 47.1562C183.14 46.0729 183.025 45.4792 183.025 45.375C183.025 44.9167 183.369 44.5938 184.056 44.4062C184.765 44.1979 185.431 44.0938 186.056 44.0938C186.556 44.0938 186.931 44.3646 187.181 44.9062C187.431 45.4271 187.65 46.1667 187.837 47.125L187.994 47.7812C189.973 45.0104 192.119 43.625 194.431 43.625C195.494 43.625 196.296 43.8229 196.837 44.2188C197.379 44.5938 197.65 45.1042 197.65 45.75C197.65 46.375 197.535 47.0417 197.306 47.75C197.098 48.4375 196.848 48.7812 196.556 48.7812C196.41 48.7812 196.15 48.7188 195.775 48.5938C195.442 48.4479 195.108 48.3438 194.775 48.2812C194.442 48.1979 194.015 48.1562 193.494 48.1562C192.64 48.1562 191.827 48.4062 191.056 48.9062C190.306 49.4062 189.671 49.9583 189.15 50.5625C188.629 51.1667 188.369 51.5 188.369 51.5625V71.875C188.369 72.2917 188.192 72.6042 187.837 72.8125C187.483 73 186.931 73.0938 186.181 73.0938H185.962Z" fill="black"/>
<path d="M11 24C11 25.6569 9.65685 27 8 27C6.34315 27 5 25.6569 5 24C5 22.3431 6.34315 21 8 21C9.65685 21 11 22.3431 11 24Z" fill="#F71919"/>
</svg>
